<svg width="40" height="41" viewBox="0 0 40 41" fill="none" xmlns="http://www.w3.org/2000/svg">
<g clip-path="url(#clip0_345_872)">
<circle cx="20" cy="20.5263" r="20" fill="white"/>
<path fill-rule="evenodd" clip-rule="evenodd" d="M19 26.5263H21V24.5263H19V26.5263ZM20 10.5263C14.48 10.5263 10 15.0063 10 20.5263C10 26.0463 14.48 30.5263 20 30.5263C25.52 30.5263 30 26.0463 30 20.5263C30 15.0063 25.52 10.5263 20 10.5263ZM20 28.5263C15.59 28.5263 12 24.9363 12 20.5263C12 16.1163 15.59 12.5263 20 12.5263C24.41 12.5263 28 16.1163 28 20.5263C28 24.9363 24.41 28.5263 20 28.5263ZM20 14.5263C17.79 14.5263 16 16.3163 16 18.5263H18C18 17.4263 18.9 16.5263 20 16.5263C21.1 16.5263 22 17.4263 22 18.5263C22 20.5263 19 20.2763 19 23.5263H21C21 21.2763 24 21.0263 24 18.5263C24 16.3163 22.21 14.5263 20 14.5263Z" fill="#9E9E9E"/>
</g>
<defs>
<clipPath id="clip0_345_872">
<rect width="40" height="40" fill="white" transform="translate(0 0.526314)"/>
</clipPath>
</defs>
</svg>
