<svg width="40" height="41" viewBox="0 0 40 41" fill="none" xmlns="http://www.w3.org/2000/svg">
<circle cx="20" cy="20.5263" r="20" fill="white"/>
<path fill-rule="evenodd" clip-rule="evenodd" d="M18 15.5263C18 17.1832 16.6569 18.5263 15 18.5263C13.3431 18.5263 12 17.1832 12 15.5263C12 13.8695 13.3431 12.5263 15 12.5263C16.6569 12.5263 18 13.8695 18 15.5263ZM25 18.5263C26.6569 18.5263 28 17.1832 28 15.5263C28 13.8695 26.6569 12.5263 25 12.5263C23.3431 12.5263 22 13.8695 22 15.5263C22 17.1832 23.3431 18.5263 25 18.5263ZM25 28.5263C26.6569 28.5263 28 27.1832 28 25.5263C28 23.8695 26.6569 22.5263 25 22.5263C23.3431 22.5263 22 23.8695 22 25.5263C22 27.1832 23.3431 28.5263 25 28.5263ZM15 28.5263C16.6569 28.5263 18 27.1832 18 25.5263C18 23.8695 16.6569 22.5263 15 22.5263C13.3431 22.5263 12 23.8695 12 25.5263C12 27.1832 13.3431 28.5263 15 28.5263Z" fill="#9E9E9E"/>
</svg>
